Coordinates
version=1
nRows=17
nColumns=24
inDegrees=yes

Units are S.I. units (second, meters, Newtons, ...)
Angles are in degrees.

endheader
time	pelvis_tilt	pelvis_list	pelvis_rotation	pelvis_tx	pelvis_ty	pelvis_tz	hip_flexion_r	hip_adduction_r	hip_rotation_r	knee_angle_r	ankle_angle_r	subtalar_angle_r	mtp_angle_r	hip_flexion_l	hip_adduction_l	hip_rotation_l	knee_angle_l	ankle_angle_l	subtalar_angle_l	mtp_angle_l	lumbar_extension	lumbar_bending	lumbar_rotation
      5.14500000	     -3.10199773	      9.86007354	     -5.56740060	      0.44971569	      1.01914323	     -0.28401520	     14.46469384	    -13.80598788	     -3.30382425	    -66.52838880	     -1.12281644	      1.01060735	      0.00000000	     13.36960224	     13.30774184	     -1.77582885	    -11.89844586	      7.66503669	    -12.64782875	      0.00000000	     -8.47657887	    -12.40125309	      1.71771570
      5.15000000	     -3.05758389	      9.73911498	     -5.53649902	      0.45593364	      1.01996339	     -0.28436815	     15.17613945	    -13.63396232	     -3.34637931	    -66.86617644	      0.07249979	      0.98058714	      0.00000000	     12.71291832	     13.27860893	     -1.56846570	    -11.51257469	      7.85778476	    -12.60733652	      0.00000000	     -8.53683507	    -12.19885909	      1.51870527
      5.15500000	     -2.97656555	      9.64716120	     -5.40518804	      0.46224967	      1.02080541	     -0.28503132	     15.79881164	    -13.55792643	     -3.53700135	    -67.12323761	      1.23422929	      0.95652603	      0.00000000	     11.95328375	     13.33385028	     -1.04799530	    -11.02359159	      7.80996692	    -12.95754318	      0.00000000	     -8.64147146	    -11.99514360	      1.19194031
      5.16000000	     -2.92442457	      9.49277345	     -5.28382859	      0.46852762	      1.02164391	     -0.28561560	     16.42987402	    -13.39167500	     -3.72139779	    -67.29089344	      2.31347069	      0.91373857	      0.00000000	     11.22925822	     13.29979463	     -0.62249977	    -10.55442239	      7.81649003	    -13.17242498	      0.00000000	     -8.71599196	    -11.72448337	      0.90509004
      5.16500000	     -2.86531399	      9.33451019	     -5.15268358	      0.47478246	      1.02246399	     -0.28621715	     17.04230291	    -13.22412462	     -3.93074164	    -67.39102495	      3.29993275	      0.82968565	      0.00000000	     10.47974904	     13.25917092	     -0.12769179	    -10.05445944	      7.80093672	    -13.42932903	      0.00000000	     -8.80420445	    -11.44878058	      0.60870164
      5.17000000	     -2.81146327	      9.15555671	     -5.02376888	      0.48101429	      1.02325902	     -0.28680949	     17.64548936	    -13.02876864	     -4.14795471	    -67.42005421	      4.22226730	      0.73749634	      0.00000000	      9.73445012	     13.18703610	      0.34017494	     -9.55239533	      7.79176239	    -13.65619264	      0.00000000	     -8.88674822	    -11.14824396	      0.31792126
      5.17500000	     -2.79613532	      8.95403101	     -4.93856310	      0.48716395	      1.02395667	     -0.28729005	     18.29810947	    -12.77313279	     -4.30459944	    -67.39445134	      5.08610630	      0.66062053	      0.00000000	      9.05148404	     13.06452807	      0.69468362	     -9.07747138	      7.88469783	    -13.76043210	      0.00000000	     -8.92615784	    -10.83011389	      0.09676119
      5.18000000	     -2.71383727	      8.75864261	     -4.73929996	      0.49343652	      1.02477064	     -0.28799478	     18.80497429	    -12.58871004	     -4.63221083	    -67.26292211	      5.89496728	      0.54269855	      0.00000000	      8.23417363	     12.98090254	      1.30947797	     -8.51500565	      7.74849929	    -14.12184073	      0.00000000	     -9.04369883	    -10.49940555	     -0.26343323
      5.18500000	     -2.67078753	      8.52991878	     -4.61347151	      0.49962987	      1.02548530	     -0.28853353	     19.36650579	    -12.31650619	     -4.85684361	    -67.07801922	      6.68637016	      0.48981232	      0.00000000	      7.48895726	     12.83067680	      1.73944987	     -7.98670578	      7.71960004	    -14.34365910	      0.00000000	     -9.11247665	    -10.14349923	     -0.53651480
      5.19000000	     -2.61590442	      8.29871875	     -4.46727656	      0.50580956	      1.02617002	     -0.28908489	     19.89348369	    -12.04598486	     -5.11209842	    -66.82507075	      7.45651681	      0.43319676	      0.00000000	      6.71951481	     12.67479731	      2.26375686	     -7.44266368	      7.66214953	    -14.62432067	      0.00000000	     -9.19902829	     -9.78692079	     -0.81238354
      5.19500000	     -2.57364298	      8.05108830	     -4.32841062	      0.51197284	      1.02681040	     -0.28960180	     20.41752480	    -11.74167234	     -5.34721546	    -66.50279942	      8.21924493	      0.42842203	      0.00000000	      5.96820494	     12.49189877	      2.73598301	     -6.89840890	      7.59872640	    -14.90185939	      0.00000000	     -9.26887241	     -9.41142360	     -1.08740840
      5.20000000	     -2.52509462	      7.79464478	     -4.18668142	      0.51813624	      1.02741228	     -0.29010249	     20.91480834	    -11.42217179	     -5.58320436	    -66.11184073	      8.98069369	      0.45606476	      0.00000000	      5.20469229	     12.29314233	      3.23816251	     -6.34367677	      7.51980777	    -15.22183986	      0.00000000	     -9.34452351	     -9.02770788	     -1.36160279
      5.20500000	     -2.48037985	      7.53401956	     -4.05609981	      0.52426486	      1.02796038	     -0.29055016	     21.40428724	    -11.08186664	     -5.79876000	    -65.65613080	      9.75469962	      0.52459405	      0.00000000	      4.44902290	     12.07868479	      3.72916052	     -5.78717385	      7.43785329	    -15.53608105	      0.00000000	     -9.41668151	     -8.64515532	     -1.60747241
      5.21000000	     -2.43239000	      7.26689852	     -3.90976353	      0.53038467	      1.02847469	     -0.29099974	     21.86519602	    -10.73035323	     -6.01728627	    -65.12730502	     10.52171424	      0.62651893	      0.00000000	      3.69053088	     11.85206653	      4.22134387	     -5.22824527	      7.33199329	    -15.87908121	      0.00000000	     -9.49526085	     -8.25769899	     -1.88183399
      5.21500000	     -2.38620525	      6.99481443	     -3.77843544	      0.53650830	      1.02892596	     -0.29140813	     22.31318276	    -10.36097710	     -6.21369707	    -64.53424869	     11.29726079	      0.78239752	      0.00000000	      2.93510821	     11.61040351	      4.69115547	     -4.66526046	      7.23903312	    -16.21833426	      0.00000000	     -9.56612775	     -7.86925577	     -2.13861412
      5.22000000	     -2.34492907	      6.72585640	     -3.64201742	      0.54258707	      1.02932466	     -0.29177964	     22.74809597	     -9.98383619	     -6.39857149	    -63.87229230	     12.07874784	      0.97189566	      0.00000000	      2.19451491	     11.36143845	      5.14170003	     -4.11244870	      7.14132144	    -16.52917829	      0.00000000	     -9.63834062	     -7.48740264	     -2.37937935
      5.22500000	     -2.31085641	      6.45780601	     -3.50866111	      0.54866095	      1.02965349	     -0.29211781	     23.17314533	     -9.59884208	     -6.56835141	    -63.14638570	     12.84916558	      1.20125823	      0.00000000	      1.46678526	     11.10430150	      5.56251469	     -3.56380052	      7.06477178	    -16.81413969	      0.00000000	     -9.70095477	     -7.11043814	     -2.62599259
